HIERARCHY
ROOT Hips
{
  OFFSET -0.0392711 15.6475 -0.0208516
  CHANNELS 6 Xposition Yposition Zposition Zrotation Xrotation Yrotation
  JOINT LHipJoint
  {
    OFFSET 0 0 0
    CHANNELS 6 Xposition Yposition Zposition Zrotation Xrotation Yrotation
    JOINT LeftUpLeg
    {
      OFFSET 1.36306 -1.79463 0.83929
      CHANNELS 6 Xposition Yposition Zposition Zrotation Xrotation Yrotation
      JOINT LeftLeg
      {
        OFFSET 2.44811 -6.72613 0
        CHANNELS 6 Xposition Yposition Zposition Zrotation Xrotation Yrotation
        JOINT LeftFoot
        {
          OFFSET 2.5622 -7.03959 0
          CHANNELS 6 Xposition Yposition Zposition Zrotation Xrotation Yrotation
          JOINT LeftToeBase
          {
            OFFSET 0.15764 -0.43311 2.32255
            CHANNELS 6 Xposition Yposition Zposition Zrotation Xrotation Yrotation
            End Site
            {
              OFFSET 0 0 0
            }
          }
        }
      }
    }
  }
  JOINT RHipJoint
  {
    OFFSET 0 0 0
    CHANNELS 6 Xposition Yposition Zposition Zrotation Xrotation Yrotation
    JOINT RightUpLeg
    {
      OFFSET -1.30552 -1.79463 0.83929
      CHANNELS 6 Xposition Yposition Zposition Zrotation Xrotation Yrotation
      JOINT RightLeg
      {
        OFFSET -2.54253 -6.98555 0
        CHANNELS 6 Xposition Yposition Zposition Zrotation Xrotation Yrotation
        JOINT RightFoot
        {
          OFFSET -2.56826 -7.05623 0
          CHANNELS 6 Xposition Yposition Zposition Zrotation Xrotation Yrotation
          JOINT RightToeBase
          {
            OFFSET -0.16473 -0.45259 2.36315
            CHANNELS 6 Xposition Yposition Zposition Zrotation Xrotation Yrotation
            End Site
            {
              OFFSET 0 0 0
            }
          }
        }
      }
    }
  }
  JOINT LowerBack
  {
    OFFSET 0 0 0
    CHANNELS 6 Xposition Yposition Zposition Zrotation Xrotation Yrotation
    JOINT Spine
    {
      OFFSET 0.02827 2.03559 -0.19338
      CHANNELS 6 Xposition Yposition Zposition Zrotation Xrotation Yrotation
      JOINT Spine1
      {
        OFFSET 0.05672 2.04885 -0.04275
        CHANNELS 6 Xposition Yposition Zposition Zrotation Xrotation Yrotation
        JOINT Neck
        {
          OFFSET 0 0 0
          CHANNELS 6 Xposition Yposition Zposition Zrotation Xrotation Yrotation
          JOINT Neck1
          {
            OFFSET -0.05417 1.74624 0.17202
            CHANNELS 6 Xposition Yposition Zposition Zrotation Xrotation Yrotation
            JOINT Head
            {
              OFFSET 0.10407 1.76136 -0.12397
              CHANNELS 6 Xposition Yposition Zposition Zrotation Xrotation Yrotation
              End Site
              {
                OFFSET 0 0 0
              }
            }
          }
        }
        JOINT LeftShoulder
        {
          OFFSET 0 0 0
          CHANNELS 6 Xposition Yposition Zposition Zrotation Xrotation Yrotation
          JOINT LeftArm
          {
            OFFSET 3.36241 1.20089 -0.31121
            CHANNELS 6 Xposition Yposition Zposition Zrotation Xrotation Yrotation
            JOINT LeftForeArm
            {
              OFFSET 4.983 0 0
              CHANNELS 6 Xposition Yposition Zposition Zrotation Xrotation Yrotation
              JOINT LeftHand
              {
                OFFSET 3.48356 0 0
                CHANNELS 6 Xposition Yposition Zposition Zrotation Xrotation Yrotation
                JOINT LeftFingerBase
                {
                  OFFSET 0 0 0
                  CHANNELS 6 Xposition Yposition Zposition Zrotation Xrotation Yrotation
                  JOINT LeftHandIndex1
                  {
                    OFFSET 0.71526 0 0
                    CHANNELS 6 Xposition Yposition Zposition Zrotation Xrotation Yrotation
                    End Site
                    {
                      OFFSET 0 0 0
                    }
                  }
                }
                JOINT LThumb
                {
                  OFFSET 0 0 0
                  CHANNELS 6 Xposition Yposition Zposition Zrotation Xrotation Yrotation
                  End Site
                  {
                    OFFSET 0 0 0
                  }
                }
              }
            }
          }
        }
        JOINT RightShoulder
        {
          OFFSET 0 0 0
          CHANNELS 6 Xposition Yposition Zposition Zrotation Xrotation Yrotation
          JOINT RightArm
          {
            OFFSET -3.1366 1.37405 -0.40465
            CHANNELS 6 Xposition Yposition Zposition Zrotation Xrotation Yrotation
            JOINT RightForeArm
            {
              OFFSET -5.2419 0 0
              CHANNELS 6 Xposition Yposition Zposition Zrotation Xrotation Yrotation
              JOINT RightHand
              {
                OFFSET -3.44417 0 0
                CHANNELS 6 Xposition Yposition Zposition Zrotation Xrotation Yrotation
                JOINT RightFingerBase
                {
                  OFFSET 0 0 0
                  CHANNELS 6 Xposition Yposition Zposition Zrotation Xrotation Yrotation
                  JOINT RightHandIndex1
                  {
                    OFFSET -0.62253 0 0
                    CHANNELS 6 Xposition Yposition Zposition Zrotation Xrotation Yrotation
                    End Site
                    {
                      OFFSET 0 0 0
                    }
                  }
                }
                JOINT RThumb
                {
                  OFFSET 0 0 0
                  CHANNELS 6 Xposition Yposition Zposition Zrotation Xrotation Yrotation
                  End Site
                  {
                    OFFSET 0 0 0
                  }
                }
              }
            }
          }
        }
      }
    }
  }
}
MOTION
Frames:	8
Frame Time:	0.00833333
-0.0392711 15.6475 -0.0208516 0.566178 8.62104 -5.19054 0 0 0 -0.299681 5.35791 18.0368 1.36306 -1.79463 0.83929 -45.5152 -33.7945 -33.3983 2.44811 -6.72613 0 -1.0124 58.1138 47.5063 2.5622 -7.03959 -4.44089e-016 -20.1901 1.05654 -4.21266 0.15764 -0.43311 2.32255 1.51219e-006 -2.07825e-008 -9.82363e-007 0 0 0 -8.85582 0.425549 -20.6242 -1.30552 -1.79463 0.83929 34.9568 -35.6155 20.3178 -2.54253 -6.98555 0 0.819529 67.8072 -46.1854 -2.56826 -7.05623 2.22045e-016 17.6056 0.613144 6.7744 -0.16473 -0.45259 2.36315 1.39138e-006 -2.97234e-006 5.52717e-007 0 0 0 -1.93281 -2.12354 0.12108 0.02827 2.03559 -0.19338 2.92166 43.7147 -12.63 0.05672 2.04885 -0.04275 -12.0183 -2.80463 -9.36045 0 0 0 -1.00718 -9.92045 -0.0272113 -0.05417 1.74624 0.17202 2.43786 26.901 -1.27788 0.10407 1.76136 -0.12397 2.70147e-006 6.09649e-007 -4.19698e-006 0 0 0 13.4913 -5.40754 23.2949 3.36241 1.20089 -0.31121 -65.4028 6.44699 -31.9576 4.983 1.77636e-015 4.44089e-016 14.3819 30.1304 -81.217 3.48356 0 0 4.52612 -0.514362 1.47381 0 0 0 -0.121029 -1.99587e-006 -1.14815 0.71526 0 0 -7.1726e-030 1.98785e-014 2.06736e-014 0 0 0 -3.31043e-032 -2.38542e-015 -7.95139e-016 0 0 0 -13.8327 -3.67342 -21.4536 -3.1366 1.37405 -0.40465 92.0423 35.4326 -7.98857 -5.2419 0 0 21.2823 -3.19238 49.0546 -3.44417 0 0 -0.935055 -0.198969 1.67363 0 0 0 0.388203 -7.81847e-008 2.4941 -0.62253 8.88178e-016 -4.44089e-016 -2.48481e-015 0 -1.19271e-015 0 0 0 -3.97569e-015 3.18055e-015 -0 
-0.0196023 15.7627 0.359541 0.062764 8.3131 -5.51683 0 0 0 -0.299681 5.35791 18.0368 1.36306 -1.79463 0.83929 -43.2616 -32.2756 -31.6039 2.44811 -6.72613 0 -0.805775 57.5527 45.9869 2.5622 -7.03959 6.66134e-016 -19.9545 1.33829 -4.01617 0.15764 -0.43311 2.32255 -0.0407101 -1.92797 -0.964666 0 0 0 -8.85582 0.425549 -20.6242 -1.30552 -1.79463 0.83929 35.7757 -35.0413 19.8938 -2.54253 -6.98555 0 -1.52444 65.0219 -42.4842 -2.56826 -7.05623 3.33067e-016 17.9955 2.39766 5.72008 -0.16473 -0.45259 2.36315 -0.363817 1.3939 -0.867874 0 0 0 -1.93281 -2.12354 0.12108 0.02827 2.03559 -0.19338 3.07603 43.3965 -12.6691 0.05672 2.04885 -0.04275 -11.7334 -3.54994 -9.43161 0 0 0 -0.796074 -10.3529 -0.0523112 -0.05417 1.74624 0.17202 2.66732 26.4663 -1.32583 0.10407 1.76136 -0.12397 -0.449143 2.62891 0.120617 0 0 0 13.622 -6.00086 23.586 3.36241 1.20089 -0.31121 -65.0627 7.89101 -29.8349 4.983 0 4.44089e-016 13.7196 31.4281 -79.6409 3.48356 1.77636e-015 0 2.96603 -0.616966 1.66295 0 0 0 -0.121029 -1.99587e-006 -1.14815 0.71526 0 1.77636e-015 9.54166e-015 2.3059e-014 2.46493e-014 0 0 0 6.36111e-015 -6.36111e-015 -2.38542e-015 0 0 0 -13.9407 -4.3084 -21.6039 -3.1366 1.37405 -0.40465 90.0291 34.9764 -7.32137 -5.2419 0 0 22.1963 -3.91206 49.4167 -3.44417 0 0 -1.39343 -0.152659 1.76964 0 0 0 0.388203 -7.81847e-008 2.4941 -0.62253 -1.77636e-015 -2.22045e-016 -1.2921e-015 1.59028e-015 3.97569e-016 0 0 0 -5.1684e-015 -3.18055e-015 7.95139e-016 
0.000490591 15.8778 0.737653 -0.45048 8.0243 -5.84574 0 0 0 -0.299681 5.35791 18.0368 1.36306 -1.79463 0.83929 -41.1266 -30.682 -29.9023 2.44811 -6.72613 0 -0.642948 56.9347 44.5195 2.5622 -7.03959 8.88178e-016 -19.7912 1.48041 -3.89021 0.15764 -0.43311 2.32255 -0.139611 -3.76977 -1.86818 0 0 0 -8.85582 0.425549 -20.6242 -1.30552 -1.79463 0.83929 36.6692 -34.504 19.5087 -2.54253 -6.98555 0 -3.07641 62.1411 -39.628 -2.56826 -7.05623 0 18.4265 4.21502 4.6593 -0.16473 -0.45259 2.36315 -0.696185 2.84137 -1.77205 0 0 0 -1.93281 -2.12354 0.12108 0.02827 2.03559 -0.19338 3.2303 43.0807 -12.7105 0.05672 2.04885 -0.04275 -11.4563 -4.29451 -9.50766 0 0 0 -0.586006 -10.8027 -0.0773682 -0.05417 1.74624 0.17202 2.89484 26.0142 -1.37241 0.10407 1.76136 -0.12397 -0.870825 5.24234 0.229785 0 0 0 13.7617 -6.60005 23.8725 3.36241 1.20089 -0.31121 -64.853 9.41367 -27.7627 4.983 0 0 12.9439 32.6152 -77.9109 3.48356 0 0 1.38685 -0.728564 1.88308 0 0 0 -0.121029 -1.99587e-006 -1.14815 0.71526 0 -1.77636e-015 9.54166e-015 1.90833e-014 1.90833e-014 0 0 0 -3.18055e-015 3.97569e-015 3.97569e-015 0 0 0 -14.0343 -4.93771 -21.7713 -3.1366 1.37405 -0.40465 88.0117 34.5048 -6.63037 -5.2419 0 1.77636e-015 23.1256 -4.65105 49.7745 -3.44417 0 -2.22045e-016 -1.81556 -0.105193 1.87683 0 0 0 0.388203 -7.81847e-008 2.4941 -0.62253 -1.77636e-015 -2.22045e-016 -3.86388e-015 3.18055e-015 -9.93923e-017 0 0 0 2.5842e-015 0 -3.97569e-016 
0.0197353 15.9932 1.12033 -0.954605 7.69743 -6.16838 0 0 0 -0.299681 5.35791 18.0368 1.36306 -1.79463 0.83929 -39.1006 -29.0519 -28.2658 2.44811 -6.72613 0 -0.560282 56.3587 43.1051 2.5622 -7.03959 8.88178e-016 -19.4891 1.90213 -3.62332 0.15764 -0.43311 2.32255 -0.31765 -5.77734 -2.90714 0 0 0 -8.85582 0.425549 -20.6242 -1.30552 -1.79463 0.83929 37.4447 -33.8833 19.0695 -2.54253 -6.98555 0 -4.10419 59.2258 -37.337 -2.56826 -7.05623 1.11022e-015 18.9724 5.98216 3.61686 -0.16473 -0.45259 2.36315 -0.964533 4.17788 -2.60979 0 0 0 -1.93281 -2.12354 0.12108 0.02827 2.03559 -0.19338 3.38304 42.7603 -12.7473 0.05672 2.04885 -0.04275 -11.1691 -5.03966 -9.57914 0 0 0 -0.375028 -11.2177 -0.102733 -0.05417 1.74624 0.17202 3.12382 25.5969 -1.42089 0.10407 1.76136 -0.12397 -1.38091 7.88658 0.364931 0 0 0 13.9019 -7.17935 24.1784 3.36241 1.20089 -0.31121 -64.6939 10.9067 -25.6037 4.983 -1.77636e-015 1.33227e-015 12.1847 33.8129 -76.115 3.48356 0 1.77636e-015 -0.152105 -0.822091 2.04127 0 0 0 -0.121029 -1.99587e-006 -1.14815 0.71526 1.77636e-015 1.77636e-015 3.18055e-015 2.06736e-014 2.62396e-014 0 0 0 -3.18055e-015 0 6.36111e-015 0 0 0 -14.1668 -5.5745 -21.9137 -3.1366 1.37405 -0.40465 86.0425 34.0506 -6.01049 -5.2419 0 1.77636e-015 24.0523 -5.32027 50.174 -3.44417 1.77636e-015 0 -2.31064 -0.0600516 1.96167 0 0 0 0.388203 -7.81847e-008 2.4941 -0.62253 1.77636e-015 -4.44089e-016 -1.78906e-015 3.18055e-015 1.59028e-015 0 0 0 2.85753e-015 -1.59028e-015 2.48481e-016 
0.0368594 16.1096 1.51441 -1.43174 7.27539 -6.47588 0 0 0 -0.299681 5.35791 18.0368 1.36306 -1.79463 0.83929 -37.1726 -27.4213 -26.6641 2.44811 -6.72613 -8.88178e-016 -0.577465 55.9239 41.7265 2.5622 -7.03959 1.11022e-015 -18.8541 3.02355 -3.00435 0.15764 -0.43311 2.32255 -0.643792 -8.19863 -4.28495 0 0 0 -8.85582 0.425549 -20.6242 -1.30552 -1.79463 0.83929 37.9198 -33.0555 18.49 -2.54253 -6.98555 1.77636e-015 -4.79569 56.321 -35.4058 -2.56826 -7.05623 -1.33227e-015 19.6975 7.61564 2.61788 -0.16473 -0.45259 2.36315 -1.15502 5.24015 -3.27636 0 0 0 -1.93281 -2.12354 0.12108 0.02827 2.03559 -0.19338 3.53302 42.4284 -12.7729 0.05672 2.04885 -0.04275 -10.8534 -5.78679 -9.63656 0 0 0 -0.161114 -11.5453 -0.128735 -0.05417 1.74624 0.17202 3.35775 25.2666 -1.47455 0.10407 1.76136 -0.12397 -2.10276 10.6078 0.564585 0 0 0 14.0348 -7.71275 24.5274 3.36241 1.20089 -0.31121 -64.5018 12.2549 -23.2155 4.983 1.77636e-015 8.88178e-016 11.5656 35.1618 -74.3433 3.48356 0 0 -1.59231 -0.870524 2.04457 0 0 0 -0.121029 -1.99587e-006 -1.14815 0.71526 -8.88178e-016 -1.77636e-015 -6.88569e-030 2.06736e-014 1.90833e-014 0 0 0 6.36111e-015 3.18055e-015 6.36111e-015 0 0 0 -14.3899 -6.23266 -21.9891 -3.1366 1.37405 -0.40465 84.1683 33.649 -5.55361 -5.2419 -1.77636e-015 0 24.9583 -5.83031 50.6567 -3.44417 1.77636e-015 -2.22045e-016 -2.98774 -0.0207124 1.99066 0 0 0 0.388203 -7.81847e-008 2.4941 -0.62253 0 0 -5.56597e-015 0 -1.59028e-015 0 0 0 -2.78299e-015 1.59028e-015 1.98785e-016 
0.0521207 16.2291 1.92156 -1.88638 6.73916 -6.77233 0 0 0 -0.299681 5.35791 18.0368 1.36306 -1.79463 0.83929 -35.2985 -25.7918 -25.056 2.44811 -6.72613 0 -0.717312 55.7071 40.2454 2.5622 -7.03959 0 -17.8213 4.98544 -1.92763 0.15764 -0.43311 2.32255 -1.28793 -11.2464 -6.20733 0 0 0 -8.85582 0.425549 -20.6242 -1.30552 -1.79463 0.83929 38.0969 -31.9716 17.773 -2.54253 -6.98555 0 -5.2647 53.3406 -33.6676 -2.56826 -7.05623 0 20.6441 9.12346 1.64487 -0.16473 -0.45259 2.36315 -1.26623 5.96691 -3.721 0 0 0 -1.93281 -2.12354 0.12108 0.02827 2.03559 -0.19338 3.6755 42.0805 -12.7885 0.05672 2.04885 -0.04275 -10.484 -6.5437 -9.67923 0 0 0 0.0678722 -11.7686 -0.157388 -0.05417 1.74624 0.17202 3.61101 25.0398 -1.53877 0.10407 1.76136 -0.12397 -3.12362 13.485 0.843473 0 0 0 14.1451 -8.19904 24.9318 3.36241 1.20089 -0.31121 -64.1281 13.532 -20.3949 4.983 -1.77636e-015 0 11.1499 36.622 -72.7677 3.48356 0 0 -2.94419 -0.879005 1.8914 0 0 0 -0.121029 -1.99587e-006 -1.14815 0.71526 8.88178e-016 1.77636e-015 9.54166e-015 2.38542e-014 2.70347e-014 0 0 0 3.18055e-015 -1.59028e-015 1.59028e-015 0 0 0 -14.7473 -6.90994 -22.0232 -3.1366 1.37405 -0.40465 82.4267 33.3179 -5.32085 -5.2419 -1.77636e-015 0 25.8612 -6.20437 51.2301 -3.44417 1.77636e-015 -4.44089e-016 -3.92558 0.00715095 1.9248 0 0 0 0.388203 -7.81847e-008 2.4941 -0.62253 0 0 -6.95746e-015 3.18055e-015 -1.59028e-015 0 0 0 2.88238e-015 1.59028e-015 3.97569e-016 
0.0659987 16.3506 2.33818 -2.32686 6.12078 -7.0606 0 0 0 -0.299681 5.35791 18.0368 1.36306 -1.79463 0.83929 -33.4946 -24.1495 -23.4593 2.44811 -6.72613 0 -0.931788 55.636 38.6816 2.5622 -7.03959 -1.33227e-015 -16.5916 7.55434 -0.515629 0.15764 -0.43311 2.32255 -2.32755 -14.7057 -8.5703 0 0 0 -8.85582 0.425549 -20.6242 -1.30552 -1.79463 0.83929 38.0799 -30.6961 16.9725 -2.54253 -6.98555 0 -5.51665 50.3024 -32.1386 -2.56826 -7.05623 0 21.7573 10.5371 0.689207 -0.16473 -0.45259 2.36315 -1.32988 6.45246 -4.00507 0 0 0 -1.93281 -2.12354 0.12108 0.02827 2.03559 -0.19338 3.81293 41.7212 -12.797 0.05672 2.04885 -0.04275 -10.0768 -7.3073 -9.71164 0 0 0 0.307141 -11.9165 -0.187842 -0.05417 1.74624 0.17202 3.87753 24.8879 -1.61037 0.10407 1.76136 -0.12397 -4.3772 16.4706 1.18611 0 0 0 14.2421 -8.64954 25.3766 3.36241 1.20089 -0.31121 -63.6713 14.7374 -17.2571 4.983 -1.77636e-015 0 10.8645 38.1802 -71.3247 3.48356 0 -1.77636e-015 -4.23047 -0.857825 1.62359 0 0 0 -0.121029 -1.99587e-006 -1.14815 0.71526 8.88178e-016 8.88178e-016 -1.20831e-029 2.38542e-014 2.90226e-014 0 0 0 3.18055e-015 4.77083e-015 -3.57812e-015 0 0 0 -15.1992 -7.60187 -22.0262 -3.1366 1.37405 -0.40465 80.776 33.0384 -5.24625 -5.2419 -1.77636e-015 0 26.7615 -6.47496 51.8676 -3.44417 0 0 -5.04929 0.0269803 1.79197 0 0 0 0.388203 -7.81847e-008 2.4941 -0.62253 0 0 -7.95139e-016 3.18055e-015 -7.95139e-016 0 0 0 1.78906e-015 3.18055e-015 -1.59028e-015 
0.0775538 16.4702 2.76323 -2.74109 5.43978 -7.33008 0 0 0 -0.299681 5.35791 18.0368 1.36306 -1.79463 0.83929 -31.8341 -22.5104 -21.9272 2.44811 -6.72613 0 -1.13416 55.5963 37.2567 2.5622 -7.03959 -2.22045e-016 -15.39 10.5866 1.10674 0.15764 -0.43311 2.32255 -3.65935 -18.1832 -11.1115 0 0 0 -8.85582 0.425549 -20.6242 -1.30552 -1.79463 0.83929 37.8469 -29.2731 16.0856 -2.54253 -6.98555 1.77636e-015 -5.57861 47.4056 -30.8734 -2.56826 -7.05623 4.44089e-016 22.9437 11.809 -0.208627 -0.16473 -0.45259 2.36315 -1.38657 6.76776 -4.19075 0 0 0 -1.93281 -2.12354 0.12108 0.02827 2.03559 -0.19338 3.95504 41.3572 -12.7942 0.05672 2.04885 -0.04275 -9.67412 -8.06276 -9.73188 0 0 0 0.533421 -12.0055 -0.216116 -0.05417 1.74624 0.17202 4.13031 24.7949 -1.67987 0.10407 1.76136 -0.12397 -5.75965 19.4209 1.58703 0 0 0 14.3541 -9.05709 25.8436 3.36241 1.20089 -0.31121 -63.3558 15.6321 -14.1451 4.983 0 8.88178e-016 10.5878 40.0068 -69.7053 3.48356 0 8.88178e-016 -5.41063 -0.787663 1.21331 0 0 0 -0.121029 -1.99587e-006 -1.14815 0.71526 -8.88178e-016 1.77636e-015 1.59028e-015 2.22639e-014 1.82882e-014 0 0 0 3.31043e-032 1.59028e-015 -1.19271e-015 0 0 0 -15.668 -8.32056 -21.9331 -3.1366 1.37405 -0.40465 79.144 32.7909 -5.23083 -5.2419 1.77636e-015 0 27.6101 -6.57108 52.5556 -3.44417 0 0 -6.23749 0.0489733 1.65901 0 0 0 0.388203 -7.81847e-008 2.4941 -0.62253 1.77636e-015 8.88178e-016 -7.95139e-016 3.18055e-015 1.59028e-015 0 0 0 -2.18663e-015 -3.18055e-015 -7.95139e-016 
